<svg width="77" height="127" viewBox="0 0 77 127" fill="none" xmlns="http://www.w3.org/2000/svg">
<path d="M22.8314 35.5244C22.7034 35.4554 22.5754 35.4062 22.4473 35.3373C15.8597 31.9893 7.69645 34.4707 4.12196 40.9895L3.6394 41.8659L62.2295 73.5144V56.6069L22.8314 35.5244Z" fill="url(#paint0_linear_106_575)"/>
<path d="M76.0153 0.754395C68.4331 0.754395 62.2294 6.95805 62.2294 14.5403V51.1714V51.5062V56.6168V73.5242V78.6644V86.0004C62.2294 100.121 50.7477 111.603 36.627 111.603C33.9191 111.603 31.3096 111.179 28.8675 110.392C18.7546 107.162 11.3595 97.8071 11.0542 86.7094C8.73031 87.3692 2.27062 89.8408 0.202733 97.3246C-1.05769 104.139 3.77725 110.382 8.66139 115.089C14.6976 120.889 22.4867 124.729 30.7681 125.94C32.6784 126.216 34.6379 126.373 36.627 126.373C58.8912 126.373 77 108.265 77 86.0004V84.9665V0.813475C76.6652 0.774086 76.3402 0.754395 76.0153 0.754395Z" fill="url(#paint1_linear_106_575)"/>
<defs>
<linearGradient id="paint0_linear_106_575" x1="8.05009" y1="39.3618" x2="63.4942" y2="44.5733" gradientUnits="userSpaceOnUse">
<stop stop-color="#FFD6A5"/>
<stop offset="1" stop-color="#FF9B9B"/>
</linearGradient>
<linearGradient id="paint1_linear_106_575" x1="86.7435" y1="-13.7029" x2="38.5" y2="126.373" gradientUnits="userSpaceOnUse">
<stop offset="0.125479" stop-color="#FFD6A5"/>
<stop offset="1" stop-color="#FF9B9B"/>
</linearGradient>
</defs>
</svg>
